# AST/ASF file generated using VICON BodyLanguage
# -----------------------------------------------
:version 1.10
:name VICON
:units
  mass 1.0
  length 0.45
  angle deg
:documentation
   .ast/.asf automatically generated from VICON data using
   VICON BodyBuilder and BodyLanguage model FoxedUp or BRILLIANT.MOD
:root
   order TX TY TZ RX RY RZ
   axis XYZ
   position 0 0 0  
   orientation 0 0 0 
:bonedata
  begin
     id 1 
     name lhipjoint
     direction 0.521452 -0.77106 0.36545 
     length 2.0933 
     axis 0 0 0  XYZ
  end
  begin
     id 2 
     name lfemur
     direction 0.34202 -0.939693 0  
     length 6.83441  
     axis 0 0 20  XYZ
    dof rx ry rz
    limits (-160.0 20.0)
           (-70.0 70.0)
           (-60.0 70.0)
  end
  begin
     id 3 
     name ltibia
     direction 0.34202 -0.939693 0   
     length 7.28749   
     axis 0 0 20   XYZ
    dof rx
    limits (-10.0 170.0)
  end
  begin
     id 4 
     name lfoot
     direction 0.100608 -0.276418 0.955757   
     length 1.52195   
     axis -90 7.62852e-016 20   XYZ
    dof rx rz
    limits (-45.0 90.0)
           (-70.0 20.0)
  end
  begin
     id 5 
     name ltoes
     direction 1.53558e-011 -4.21907e-011 1   
     length 0.770459   
     axis -90 7.62852e-016 20   XYZ
    dof rx
    limits (-90.0 20.0)
  end
  begin
     id 6 
     name rhipjoint
     direction -0.488071 -0.788702 0.373812   
     length 2.04648  
     axis 0 0 0  XYZ 
  end
  begin
     id 7 
     name rfemur
     direction -0.34202 -0.939693 0   
     length 6.92583   
     axis 0 0 -20   XYZ
    dof rx ry rz
    limits (-160.0 20.0)
           (-70.0 70.0)
           (-70.0 60.0)
  end
  begin
     id 8 
     name rtibia
     direction -0.34202 -0.939693 0   
     length 7.41043   
     axis 0 0 -20   XYZ
    dof rx
    limits (-10.0 170.0)
 end
 begin
     id 9 
     name rfoot
     direction -0.0784433 -0.215521 0.973343   
     length 1.67708  
     axis -90 -7.62852e-016 -20   XYZ
    dof rx rz
    limits (-45.0 90.0)
           (-20.0 70.0)
  end
  begin
     id 10 
     name rtoes
     direction -1.53551e-011 -4.21842e-011 1   
     length 0.849787   
     axis -90 -7.62852e-016 -20   XYZ
    dof rx
    limits (-90.0 20.0)
  end
  begin
     id 11 
     name lowerback
     direction -0.0122332 0.997575 -0.0685192   
     length 1.98724   
     axis 0 0 0   XYZ
    dof rx ry rz
    limits (-20.0 45.0)
           (-30.0 30.0)
           (-30.0 30.0)
  end
  begin
     id 12 
     name upperback
     direction 0.0182347 0.999724 -0.0148421   
     length 1.99029   
     axis 0 0 0   XYZ
    dof rx ry rz
    limits (-20.0 45.0)
           (-30.0 30.0)
           (-30.0 30.0)
  end
  begin
     id 13 
     name thorax
     direction 0.0242908 0.99956 0.0170184   
     length 1.99573   
     axis 0 0 0   XYZ
    dof rx ry rz
    limits (-20.0 45.0)
           (-30.0 30.0)
           (-30.0 30.0)
  end
  begin
     id 14 
     name lowerneck
     direction 0.0654488 0.985533 0.156338   
     length 1.4285   
     axis 0 0 0   XYZ
    dof rx ry rz
    limits (-20.0 45.0)
           (-30.0 30.0)
           (-30.0 30.0)
  end
  begin
     id 15 
     name upperneck
     direction -0.02953 0.998556 -0.0448842   
     length 1.44709   
     axis 0 0 0   XYZ
    dof rx ry rz
    limits (-20.0 45.0)
           (-30.0 30.0)
           (-30.0 30.0)
  end
  begin
     id 16
     name head
     direction -0.0155588 0.999386 -0.0314063  
     length 1.44689  
     axis 0 0 0   XYZ
    dof rx ry rz
    limits (-20.0 45.0)
           (-30.0 30.0)
           (-30.0 30.0)
  end
  begin
     id 17 
     name lclavicle
     direction 0.968229 0.236071 -0.0824755  
     length 3.60593  
     axis 0 0 0   XYZ
    dof ry rz
    limits (-20.0 10.0)
           (0.0 20.0)
  end
  begin
     id 18 
     name lhumerus
     direction 1 -4.48968e-011 7.8138e-029   
     length 5.06035   
     axis 180 -30 -90   XYZ
    dof rx ry rz
    limits (-60.0 90.0)
           (-90.0 90.0)
           (-90.0 90.0)
  end
  begin
     id 19
     name lradius
     direction 1 -4.48967e-011 9.02887e-028   
     length 3.1478   
     axis 180 -30 -90   XYZ
    dof rx
    limits (-10.0 170.0)
  end
  begin
     id 20
     name lwrist
     direction 1 -4.48961e-011 7.20928e-028   
     length 1.5739   
     axis -5.52449e-016 90 90   XYZ
    dof ry
    limits (-180.0 0.0)
 end
  begin
     id 21 
     name lhand
     direction 1 -4.48972e-011 1.44186e-027   
     length 0.606747   
     axis -9.20027e-016 90 90   XYZ
    dof rx rz
    limits (-90.0 90.0)
           (-45.0 45.0)
  end
  begin
     id 22 
     name lfingers
     direction 1 -4.48943e-011 2.88371e-027   
     length 0.489175   
     axis -1.84005e-015 90 90   XYZ
    dof rx
    limits (0.0 90.0)
  end
  begin
     id 23
     name lthumb
     direction 0.707107 -6.34917e-011 0.707107   
     length 0.70236   
     axis -90 45 2.85299e-015   XYZ
    dof rx rz
    limits (-45.0 45.0)
           (-45.0 45.0)
  end
  begin
     id 24 
     name rclavicle
     direction -0.978165 0.207816 0.0022268   
     length 3.35425  
     axis 0 0 0   XYZ 
    dof ry rz
    limits (-10.0 20.0)
           (-20.0 0.0)
  end
  begin
     id 25 
     name rhumerus
     direction -1 -4.48964e-011 -4.02159e-027  
     length 5.12273   
     axis 180 30 90   XYZ
    dof rx ry rz
    limits (-90.0 60.0)
           (-90.0 90.0)
           (-90.0 90.0)
  end
  begin
     id 26 
     name rradius
     direction -1 -4.48966e-011 1.62746e-027   
     length 3.422   
     axis 180 30 90   XYZ
    dof rx
    limits (-10.0 170.0)
  end
  begin
     id 27 
     name rwrist
     direction -1 -4.4896e-011 7.20928e-028   
     length 1.711   
     axis -5.52449e-016 -90 -90   XYZ
    dof ry
    limits (-180.0 0.0)
  end
  begin
     id 28
     name rhand
     direction -1 -4.48979e-011 1.44186e-027   
     length 0.704599   
     axis -9.20027e-016 -90 -90   XYZ
    dof rx rz
    limits (-90.0 90.0)
           (-45.0 45.0)
  end
  begin
     id 29
     name rfingers
     direction -1 -4.48962e-011 2.88371e-027   
     length 0.568066   
     axis -1.84005e-015 -90 -90   XYZ
    dof rx
    limits (0.0 90.0)
  end
  begin
     id 30
     name rthumb
     direction -0.707107 -6.34949e-011 0.707107   
     length 0.815633   
     axis -90 -45 -2.85299e-015   XYZ
    dof rx rz
    limits (-45.0 45.0)
           (-45.0 45.0)
  end
:hierarchy
  begin
    root lhipjoint rhipjoint lowerback
    lhipjoint lfemur
    lfemur ltibia
    ltibia lfoot
    lfoot ltoes
    rhipjoint rfemur
    rfemur rtibia
    rtibia rfoot
    rfoot rtoes
    lowerback upperback
    upperback thorax
    thorax lowerneck lclavicle rclavicle
    lowerneck upperneck
    upperneck head
    lclavicle lhumerus
    lhumerus lradius
    lradius lwrist
    lwrist lhand lthumb
    lhand lfingers
    rclavicle rhumerus
    rhumerus rradius
    rradius rwrist
    rwrist rhand rthumb
    rhand rfingers
  end

#!OML:ASF E:\id_vita\Project 1\Capture day 1\Session 1\Male1.ASF
:FULLY-SPECIFIED
:DEGREES
137
root -32.6962 15.2172 -5.76748 48.3412 79.0365 17.1548
lowerback 26.5296 3.61668 -9.27507
upperback 14.2829 3.81212 0.392284
thorax 0.902922 1.81228 4.74279
lowerneck -5.00521 -1.64719 5.22933
upperneck 7.84452 -2.39505 -2.39627
head 3.33455 -1.1068 -1.81596
rclavicle 3.73715e-014 3.61788e-014
rhumerus 40.4268 9.88314 -62.538
rradius 44.869
rwrist 19.2371
rhand -39.4623 63.4481
rfingers 7.12502
rthumb -12.4494 33.8389
lclavicle 3.73715e-014 3.61788e-014
lhumerus 43.5785 -21.4893 73.5935
lradius 52.3819
lwrist -5.94494
lhand -29.247 43.3888
lfingers 7.12502
lthumb -2.5903 73.3528
rfemur -58.7043 -0.923931 0.0727821
rtibia 45.2512
rfoot -12.1599 -12.1208
rtoes 2.34329
lfemur -60.0204 7.82156 -30.9979
ltibia 52.5265
lfoot -26.0155 3.69283
ltoes 41.1788
138
root -32.7025 15.2165 -5.80262 48.1737 78.9196 16.6604
lowerback 26.5322 3.62374 -9.26967
upperback 14.3585 3.83132 0.388884
thorax 0.986979 1.8175 4.73365
lowerneck -4.88538 -1.6525 5.20907
upperneck 7.88164 -2.38589 -2.47014
head 3.32427 -1.10414 -1.83486
rclavicle -4.77083e-015 -2.36554e-014
rhumerus 41.6294 9.42378 -61.9972
rradius 44.6621
rwrist 19.3258
rhand -39.1335 64.812
rfingers 7.12502
rthumb -12.1323 35.1838
lclavicle -4.77083e-015 -2.36554e-014
lhumerus 44.8906 -21.4645 72.4049
lradius 52.5937
lwrist -6.71687
lhand -30.6679 44.3246
lfingers 7.12502
lthumb -3.96243 74.2675
rfemur -59.068 -1.03226 0.259553
rtibia 45.4108
rfoot -12.3645 -12.3296
rtoes 2.73534
lfemur -60.5035 8.05433 -31.3003
ltibia 52.6228
lfoot -25.948 3.35146
ltoes 42.5492
139
root -32.7096 15.2088 -5.83384 47.5291 78.9111 15.7273
lowerback 26.5716 3.64115 -9.14252
upperback 14.471 3.89304 0.429124
thorax 1.08963 1.8482 4.69212
lowerneck -4.88102 -1.60269 5.15665
upperneck 7.9524 -2.30689 -2.5492
head 3.35121 -1.06837 -1.85007
rclavicle -2.3059e-014 -1.90833e-014
rhumerus 42.7404 9.02934 -61.3329
rradius 44.4643
rwrist 20.0999
rhand -39.7626 65.7393
rfingers 7.12502
rthumb -12.7389 36.1479
lclavicle -2.3059e-014 -1.90833e-014
lhumerus 46.2659 -21.2878 71.3312
lradius 52.7206
lwrist -7.34976
lhand -29.4402 44.2393
lfingers 7.12502
lthumb -2.77682 74.201
rfemur -59.3859 -1.17085 0.727083
rtibia 45.7089
rfoot -12.463 -12.7719
rtoes 1.10291
lfemur -60.9805 8.2374 -31.4057
ltibia 52.7535
lfoot -25.9312 3.23323
ltoes 43.0234
140
root -32.716 15.1982 -5.8642 47.214 78.7996 15.217
lowerback 26.7627 3.71125 -9.136
upperback 14.5596 3.97796 0.44749
thorax 1.09213 1.88985 4.68071
lowerneck -4.89381 -1.64171 5.11008
upperneck 8.09745 -2.35165 -2.56186
head 3.40206 -1.08957 -1.85064
rclavicle 3.18055e-015 2.3059e-014
rhumerus 43.6935 8.22248 -61.0524
rradius 44.053
rwrist 21.3704
rhand -39.6184 67.3697
rfingers 7.12502
rthumb -12.5999 37.7697
lclavicle 3.18055e-015 2.3059e-014
lhumerus 47.5905 -21.0529 70.4015
lradius 52.8263
lwrist -7.90101
lhand -28.7033 44.2622
lfingers 7.12502
lthumb -2.06519 74.232
rfemur -59.6389 -1.46295 1.25441
rtibia 46.0684
rfoot -12.6844 -13.0037
rtoes 0.771928
lfemur -61.5444 8.37081 -31.6075
ltibia 53.4606
lfoot -26.3056 3.246
ltoes 43.0286
141
root -32.7256 15.1904 -5.89856 47.6543 78.7388 15.4883
lowerback 27.0405 3.69539 -9.07031
upperback 14.6156 3.95762 0.415593
thorax 1.03713 1.88958 4.60379
lowerneck -4.87131 -1.76686 5.10494
upperneck 8.25745 -2.51821 -2.50134
head 3.44622 -1.16602 -1.83853
rclavicle -1.03368e-014 -3.24019e-014
rhumerus 44.6343 7.79906 -60.5269
rradius 44.0986
rwrist 22.0449
rhand -40.3383 68.791
rfingers 7.12502
rthumb -13.2939 39.235
lclavicle -1.03368e-014 -3.24019e-014
lhumerus 48.7757 -20.8638 69.488
lradius 52.9347
lwrist -8.60475
lhand -28.7691 44.6008
lfingers 7.12502
lthumb -2.12876 74.5699
rfemur -59.6202 -1.95341 1.73224
rtibia 46.5948
rfoot -13.7372 -12.6575
rtoes 1.87162
lfemur -62.1771 8.33974 -31.8975
ltibia 54.461
lfoot -26.8513 3.14537
ltoes 43.3864
142
root -32.8043 15.1269 -5.7514 30.6608 73.9688 -5.78544
lowerback 20.7509 6.48173 -12.6115
upperback 14.2392 7.29333 0.560288
thorax 2.85044 3.12243 6.28657
lowerneck -4.94514 -1.69308 5.19346
upperneck 8.50686 -2.44121 -2.34512
head 3.55162 -1.11453 -1.80525
rclavicle -9.38264e-014 4.55217e-014
rhumerus 45.814 7.18914 -61.0538
rradius 43.1666
rwrist 24.0486
rhand -41.4607 72.5882
rfingers 7.12502
rthumb -14.3756 43.106
lclavicle -9.38264e-014 4.55217e-014
lhumerus 49.9134 -20.4168 68.0534
lradius 52.943
lwrist -9.40864
lhand -29.7214 45.0112
lfingers 7.12502
lthumb -3.04837 74.9691
rfemur -66.2717 3.41756 3.98006
rtibia 47.142
rfoot -13.0655 -12.2228
rtoes -0.633789
lfemur -68.6494 15.2272 -31.6936
ltibia 56.1122
lfoot -27.0794 2.18843
ltoes 29.0943
143
root -32.8616 15.072 -5.68185 25.6407 71.8092 -13.1254
lowerback 17.5042 7.44635 -13.8065
upperback 14.0865 8.745 0.714539
thorax 3.87547 3.6482 7.09203
lowerneck -5.17324 -1.69967 5.3114
upperneck 8.86841 -2.46589 -2.37083
head 3.72113 -1.11775 -1.848
rclavicle 6.75868e-015 3.70733e-014
rhumerus 46.8896 7.12236 -60.6655
rradius 43.5208
rwrist 22.8243
rhand -40.6551 70.9425
rfingers 7.12502
rthumb -13.5992 41.4067
lclavicle 6.75868e-015 3.70733e-014
lhumerus 51.2769 -20.073 66.6723
lradius 52.8847
lwrist -10.1361
lhand -30.7243 43.8089
lfingers 7.12502
lthumb -4.01688 73.7508
rfemur -69.6032 5.8393 5.55109
rtibia 47.8585
rfoot -12.7915 -12.105
rtoes -4.08663
lfemur -72.4984 18.3319 -31.5132
ltibia 57.4568
lfoot -27.1941 1.6636
ltoes 19.9451
144
root -32.8649 15.0651 -5.71071 26.0874 71.5436 -12.8651
lowerback 17.5014 7.55068 -13.9635
upperback 14.2135 8.87869 0.639518
thorax 3.99601 3.69529 7.07779
lowerneck -5.21443 -1.79269 5.30504
upperneck 9.02847 -2.59512 -2.30154
head 3.78033 -1.17522 -1.83297
rclavicle 5.88403e-014 1.77912e-014
rhumerus 47.6545 6.49512 -60.0621
rradius 43.1803
rwrist 23.5575
rhand -41.0342 72.0279
rfingers 7.12502
rthumb -13.9646 42.5168
lclavicle 5.88403e-014 1.77912e-014
lhumerus 52.5968 -19.8591 65.4982
lradius 52.9137
lwrist -10.8181
lhand -30.9327 43.9616
lfingers 7.12502
lthumb -4.21819 73.8996
rfemur -69.8038 5.55082 6.12316
rtibia 48.6462
rfoot -13.8012 -11.5105
rtoes -4.13447
lfemur -73.053 18.2802 -31.7789
ltibia 58.3741
lfoot -27.772 1.95472
ltoes 20.4126
145
root -32.8675 15.0578 -5.73649 26.7584 71.2659 -12.3706
lowerback 17.5134 7.62182 -14.2587
upperback 14.3052 8.94707 0.540319
thorax 4.07601 3.70502 7.12109
lowerneck -5.11421 -1.79327 5.14359
upperneck 9.15009 -2.59239 -2.09142
head 3.8064 -1.16694 -1.73284
rclavicle -1.1291e-013 -5.26779e-014
rhumerus 48.5413 6.04614 -59.6157
rradius 42.7785
rwrist 24.1119
rhand -41.288 73.7233
rfingers 7.12502
rthumb -14.2091 44.2293
lclavicle -1.1291e-013 -5.26779e-014
lhumerus 53.6932 -19.5043 64.4303
lradius 52.8919
lwrist -11.6126
lhand -30.889 44.2121
lfingers 7.12502
lthumb -4.17596 74.151
rfemur -69.9249 5.24218 6.66199
rtibia 49.6308
rfoot -14.5046 -11.1162
rtoes -5.44124
lfemur -73.4435 18.2665 -32.1823
ltibia 58.7733
lfoot -28.0498 2.0017
ltoes 21.5678
146
root -32.8729 15.0472 -5.75837 27.0439 71.1409 -12.252
lowerback 17.6226 7.619 -14.4026
upperback 14.389 8.92426 0.458009
thorax 4.12739 3.68254 7.10909
lowerneck -5.07362 -1.71335 5.03632
upperneck 9.35155 -2.48549 -1.93237
head 3.87622 -1.10647 -1.65797
rclavicle 3.65764e-014 4.28381e-014
rhumerus 49.4312 5.78665 -59.2063
rradius 42.5666
rwrist 24.2613
rhand -41.3247 74.0459
rfingers 7.12502
rthumb -14.2445 44.5544
lclavicle 3.65764e-014 4.28381e-014
lhumerus 54.8132 -19.0729 63.3374
lradius 52.7006
lwrist -12.4362
lhand -31.0399 44.8681
lfingers 7.12502
lthumb -4.32168 74.804
rfemur -69.9392 5.0474 7.24587
rtibia 50.7202
rfoot -15.3557 -10.929
rtoes -6.22552
lfemur -73.7567 18.2245 -32.396
ltibia 58.8871
lfoot -28.0865 2.00905
ltoes 22.9891
147
root -32.8774 15.0354 -5.7795 27.2825 71.0702 -12.1416
lowerback 17.8073 7.61416 -14.372
upperback 14.4725 8.90931 0.31408
thorax 4.16191 3.68169 6.92622
lowerneck -4.98211 -1.72884 5.01606
upperneck 9.41911 -2.52079 -1.68583
head 3.8829 -1.11153 -1.57203
rclavicle 4.33351e-014 3.16068e-014
rhumerus 50.2012 5.39629 -58.9128
rradius 42.3398
rwrist 24.7905
rhand -41.5612 74.1964
rfingers 7.12502
rthumb -14.4724 44.7211
lclavicle 4.33351e-014 3.16068e-014
lhumerus 56.0021 -18.7839 62.1437
lradius 52.4986
lwrist -13.1485
lhand -31.3434 46.3612
lfingers 7.12502
lthumb -4.6147 76.2909
rfemur -69.8915 4.89811 7.78251
rtibia 51.8766
rfoot -16.2443 -10.7658
rtoes -5.89517
lfemur -74.0023 18.1305 -32.5362
ltibia 58.9994
lfoot -28.1098 2.21288
ltoes 23.7066
148
root -32.8793 15.0285 -5.79819 27.3151 70.894 -12.2194
lowerback 17.9737 7.64928 -14.3082
upperback 14.5821 8.95611 0.139855
thorax 4.23077 3.71216 6.68367
lowerneck -5.16958 -1.83034 4.87961
upperneck 9.67372 -2.68543 -1.34631
head 4.00854 -1.17687 -1.44876
rclavicle 1.74931e-014 -1.70955e-014
rhumerus 50.9839 4.79418 -58.8369
rradius 42.0172
rwrist 25.6013
rhand -41.3504 74.891
rfingers 7.12502
rthumb -14.2693 45.4013
lclavicle 1.74931e-014 -1.70955e-014
lhumerus 57.1128 -18.4659 60.8708
lradius 52.4097
lwrist -13.7963
lhand -31.3732 47.4407
lfingers 7.12502
lthumb -4.64351 77.3698
rfemur -69.8703 4.83693 8.38431
rtibia 53.1002
rfoot -17.061 -10.6925
rtoes -5.01416
lfemur -74.1949 18.1498 -32.6141
ltibia 59.1121
lfoot -28.1472 2.34454
ltoes 24.4437
149
root -32.8806 15.0184 -5.81491 27.2521 70.6904 -12.4089
lowerback 18.1538 7.60035 -14.3103
upperback 14.7009 8.8917 -0.108154
thorax 4.33554 3.68507 6.42083
lowerneck -5.88207 -1.79881 5.02988
upperneck 10.4394 -2.69656 -1.33702
head 4.42599 -1.16027 -1.50091
rclavicle 2.8625e-014 -3.49861e-014
rhumerus 51.8686 4.48373 -58.7764
rradius 41.858
rwrist 26.0448
rhand -41.2435 76.0534
rfingers 7.12502
rthumb -14.1663 46.5564
lclavicle 2.8625e-014 -3.49861e-014
lhumerus 58.0765 -17.8224 59.411
lradius 52.3276
lwrist -14.5261
lhand -31.0135 47.8602
lfingers 7.12502
lthumb -4.29619 77.7966
rfemur -69.8344 4.79421 9.05692
rtibia 54.3495
rfoot -17.1752 -11.4442
rtoes -8.89904
lfemur -74.421 18.1936 -32.6353
ltibia 59.2469
lfoot -28.1686 2.34847
ltoes 25.5129
150
root -32.8824 15.0086 -5.83112 27.6004 70.6108 -12.3057
lowerback 18.1608 7.43205 -14.3782
upperback 14.7898 8.697 -0.401494
thorax 4.52165 3.587 6.19008
lowerneck -6.30813 -1.66706 5.40045
upperneck 11.4254 -2.5443 -1.62369
head 4.36644 -1.08005 -1.51747
rclavicle -7.07673e-014 -6.91771e-014
rhumerus 52.7856 4.34427 -58.8074
rradius 41.6526
rwrist 26.3488
rhand -41.3105 76.9934
rfingers 7.12502
rthumb -14.2308 47.5009
lclavicle -7.07673e-014 -6.91771e-014
lhumerus 58.954 -17.0407 57.8942
lradius 52.2237
lwrist -15.2876
lhand -30.8817 48.9016
lfingers 7.12502
lthumb -4.16889 78.8405
rfemur -69.8524 4.6671 9.56364
rtibia 55.7099
rfoot -18.8478 -11.1618
rtoes -6.87537
lfemur -74.7434 18.0186 -32.6998
ltibia 59.3703
lfoot -28.1754 2.34693
ltoes 26.9349
